<?xml version="1.0" encoding="utf-8"?>
<!-- Generator: Adobe Illustrator 16.0.4, SVG Export Plug-In . SVG Version: 6.00 Build 0)  -->
<!DOCTYPE svg PUBLIC "-//W3C//DTD SVG 1.1//EN" "http://www.w3.org/Graphics/SVG/1.1/DTD/svg11.dtd">
<svg version="1.1" id="Capa_1" xmlns="http://www.w3.org/2000/svg" xmlns:xlink="http://www.w3.org/1999/xlink" x="0px" y="0px"
	 width="100px" height="100px" viewBox="0 0 100 100" enable-background="new 0 0 100 100" xml:space="preserve">
<g>
	<path fill="#1D1D1B" d="M94.963,46.662c0-0.49,0.008-0.985,0.014-1.482c0.061-4.263,0.133-9.567-4.263-13.293
		c-3.974-3.367-9.252-3.557-13.491-3.71l-0.72-0.027c-4.791-0.184-9.836-0.27-15.874-0.27l-1.081,0.001
		c-6.767,0.011-13.639,0.081-20.284,0.149c-7.187,0.073-14.618,0.149-21.921,0.15c-3.837,0-6.956,1.224-9.271,3.638
		C2.93,37.179,3.34,46.999,3.611,53.496l0.014,0.348c0.409,9.854,0.394-4.096,0.379,5.625c-0.006,3.598-0.011,7.194,0.004,10.791
		c0.009,2.182-0.003,4.362-0.015,6.543c-0.01,1.663-0.019,3.326-0.019,4.988c0,13.723,14.09,13.723,18.72,13.723
		c2.039,0,4.092-0.098,5.903-0.185c1.558-0.073,3.028-0.144,4.343-0.144c0.001,0,0.002,0,0.002,0h0.812
		c1.998,0,3.995-0.014,5.991-0.027c1.981-0.014,3.961-0.027,5.941-0.027c3.671,0,8.507,0.042,13.373,0.372l2.002,0.14
		c3.306,0.233,6.723,0.477,10.142,0.477c0.001,0,0.001,0,0.001,0c4.176,0,7.779-0.374,11.02-1.145
		c10.287-2.443,12.633-8.908,12.789-13.902c0.398-12.771,0.25-1.768,0.104-14.338C95.039,60.148,94.961,53.338,94.963,46.662z
		 M89.514,80.898c-0.098,3.139-1.158,6.967-8.562,8.725c-2.817,0.67-6.007,0.995-9.748,0.995c0,0,0,0-0.001,0
		c-3.225,0-6.543-0.233-9.752-0.462l-2.02-0.143c-5.029-0.34-9.987-0.384-13.745-0.384c-1.993,0-3.986,0.015-5.979,0.026
		c-1.983,0.016-3.968,0.029-5.953,0.029l-0.881-0.002c-1.376,0-2.911,0.073-4.537,0.15c-1.835,0.087-3.733,0.178-5.642,0.178
		c-10.972,0-13.22-3.287-13.22-8.223c0-1.652,0.009-3.305,0.019-4.958c0.012-2.198,0.023-4.396,0.015-6.597
		c-0.015-3.586-0.01-7.174-0.004-10.76c0.015-9.779,0.03,4.109-0.383-5.861l-0.015-0.35C8.875,47.7,8.523,39.29,12.042,35.622
		c1.255-1.309,2.989-1.945,5.302-1.945c7.331-0.001,14.776-0.077,21.977-0.15c6.635-0.068,13.496-0.138,20.238-0.148l1.071-0.001
		c5.968,0,10.942,0.084,15.663,0.266l0.73,0.027c3.744,0.135,7.615,0.275,10.135,2.41c2.254,1.91,2.38,4.682,2.32,9.021
		c-0.008,0.521-0.016,1.041-0.016,1.556c-0.002,6.709,0.077,13.535,0.153,20.138C89.76,79.311,89.909,68.246,89.514,80.898z"/>
	<path fill="#1D1D1B" d="M65.75,17.728c0-0.156,0.002-0.313,0.004-0.471c0.021-1.412,0.043-3.168-1.446-4.432
		c-1.333-1.129-3.065-1.192-4.457-1.242l-0.229-0.009c-1.536-0.059-3.15-0.086-5.079-0.086h-0.345
		c-2.164,0.003-4.361,0.026-6.486,0.048c-2.293,0.023-4.664,0.047-6.994,0.048c-1.294,0-2.349,0.416-3.136,1.236
		c-1.713,1.786-1.58,4.984-1.492,7.1l0.004,0.112c0.13,3.14,0.126-3.432,0.121-0.332c-0.001,1.151-0.003,2.301,0.001,3.453
		c0.003,0.696-0.001,1.393-0.005,2.089c-0.003,0.531-0.006,1.061-0.006,1.591c0,4.565,4.756,4.565,6.546,4.565
		c0.285,0,0.565-0.003,0.835-0.007c0.244-0.003,0.479-0.007,0.703-0.007l0.227,0.002c0.877,0.01,1.752,0.015,2.628,0.015
		c1.781,0,3.562-0.018,5.343-0.034c2.408-0.024,4.812-0.047,7.222-0.027h0.094c0.562,0,1.099-0.04,1.593-0.119
		c2.739-0.44,4.291-2.077,4.371-4.609c0.127-4.083,0.079,1.543,0.033-2.472C65.774,22.036,65.749,19.86,65.75,17.728z
		 M61.211,27.157c-0.023,0.741-0.261,1.624-1.902,1.887c-0.289,0.046-0.607,0.069-0.946,0.069h-0.06
		c-1.85-0.014-3.702,0.003-5.553,0.021c-2.02,0.019-4.042,0.039-6.061,0.015l-0.194-0.001c-0.178,0-0.365,0.003-0.559,0.005
		c-0.2,0.002-0.407,0.005-0.617,0.005c-2.769,0-3.293-0.624-3.293-1.778c0-0.402,0.002-0.805,0.004-1.208
		c0.003-0.538,0.006-1.077,0.004-1.615c-0.004-0.877-0.003-1.755-0.001-2.631c0.003-2.39,0.007,2.618-0.094,0.18l-0.004-0.087
		c-0.055-1.328-0.139-3.334,0.667-4.173c0.171-0.18,0.479-0.418,1.161-0.418c1.791,0,3.609-0.019,5.368-0.037
		c1.621-0.016,3.299-0.033,4.947-0.036h0.261c1.453,0,2.666,0.021,3.819,0.065l0.179,0.007c0.883,0.031,1.796,0.064,2.363,0.545
		c0.499,0.422,0.517,1.058,0.502,2.06c-0.002,0.128-0.005,0.256-0.005,0.383c0,1.641,0.02,3.311,0.038,4.925
		C61.27,28.394,61.308,24.072,61.211,27.157z"/>
</g>
<g>
	<g>
		<path d="M51.313,83.024c11.379,0,20.638-9.257,20.638-20.636c0-2.566-0.778-5.854-2.08-8.792
			c-3.212-7.252-10.044-11.582-18.273-11.582c-3.712,0-7.454,0.925-10.82,2.675c-6.441,3.349-10.456,10.398-10.229,17.957
			c0.108,3.596,1.271,7.113,3.365,10.178C38.604,79.688,44.296,83.024,51.313,83.024z M43.497,50.062
			c2.443-1.271,5.156-1.943,7.846-1.943c5.841,0,10.684,3.057,12.952,8.175c0.933,2.107,1.514,4.526,1.514,6.31
			c0,8.104-6.595,14.696-14.698,14.696c-4.966,0-9.032-2.419-12.434-7.394c-1.476-2.162-2.296-4.637-2.372-7.16
			C36.148,57.478,39.038,52.381,43.497,50.062z"/>
	</g>
</g>
</svg>
